<mxfile host="app.diagrams.net" modified="2023-12-13T11:58:47.946Z" agent="Mozilla/5.0 (Windows NT 10.0; Win64; x64) AppleWebKit/537.36 (KHTML, like Gecko) Chrome/120.0.0.0 Safari/537.36" etag="A7l8c4V-at7fsx3-lQWS" version="22.1.8" type="device">
  <diagram name="Страница 1" id="cZJAvvumR1f1iQ78-VV6">
    <mxGraphModel dx="999" dy="993" grid="0" gridSize="10" guides="1" tooltips="1" connect="1" arrows="1" fold="1" page="0" pageScale="1" pageWidth="827" pageHeight="1169" math="0" shadow="0">
      <root>
        <mxCell id="0" />
        <mxCell id="1" parent="0" />
        <mxCell id="ceJ1qJqe-UXo6vFpMRFe-4" value="" style="rounded=0;whiteSpace=wrap;html=1;" parent="1" vertex="1">
          <mxGeometry x="1380" y="80" width="610" height="930" as="geometry" />
        </mxCell>
        <mxCell id="G4qy4P3mySwCrmxL-B7K-1" style="edgeStyle=orthogonalEdgeStyle;rounded=0;orthogonalLoop=1;jettySize=auto;html=1;exitX=1;exitY=0.5;exitDx=0;exitDy=0;entryX=0;entryY=0.5;entryDx=0;entryDy=0;dashed=1;" edge="1" parent="1" source="ceJ1qJqe-UXo6vFpMRFe-3" target="acn1A1ULvDet1m9HGMsg-3">
          <mxGeometry relative="1" as="geometry" />
        </mxCell>
        <mxCell id="ceJ1qJqe-UXo6vFpMRFe-3" value="&lt;font face=&quot;Times New Roman&quot; style=&quot;font-size: 14px;&quot;&gt;Регистрация&lt;/font&gt;" style="ellipse;whiteSpace=wrap;html=1;" parent="1" vertex="1">
          <mxGeometry x="1410" y="110" width="230" height="50" as="geometry" />
        </mxCell>
        <mxCell id="ceJ1qJqe-UXo6vFpMRFe-6" value="&lt;font style=&quot;font-size: 14px;&quot; face=&quot;Times New Roman&quot;&gt;Незарегистрированный&lt;br&gt;пользователь&lt;/font&gt;" style="shape=umlActor;verticalLabelPosition=bottom;verticalAlign=top;html=1;outlineConnect=0;" parent="1" vertex="1">
          <mxGeometry x="1249" y="120" width="30" height="60" as="geometry" />
        </mxCell>
        <mxCell id="ceJ1qJqe-UXo6vFpMRFe-7" value="" style="endArrow=none;html=1;rounded=0;entryX=0;entryY=0.5;entryDx=0;entryDy=0;endFill=0;" parent="1" target="ceJ1qJqe-UXo6vFpMRFe-3" edge="1">
          <mxGeometry width="50" height="50" relative="1" as="geometry">
            <mxPoint x="1330" y="160" as="sourcePoint" />
            <mxPoint x="1070" y="220" as="targetPoint" />
          </mxGeometry>
        </mxCell>
        <mxCell id="ceJ1qJqe-UXo6vFpMRFe-8" value="&lt;font style=&quot;font-size: 14px;&quot; face=&quot;Times New Roman&quot;&gt;Авторизированный&lt;br&gt;пользователь&lt;/font&gt;" style="shape=umlActor;verticalLabelPosition=bottom;verticalAlign=top;html=1;outlineConnect=0;" parent="1" vertex="1">
          <mxGeometry x="1249" y="670" width="30" height="60" as="geometry" />
        </mxCell>
        <mxCell id="ceJ1qJqe-UXo6vFpMRFe-21" value="&lt;font face=&quot;Times New Roman&quot;&gt;&lt;span style=&quot;font-size: 14px;&quot;&gt;Администратор&lt;/span&gt;&lt;/font&gt;" style="shape=umlActor;verticalLabelPosition=bottom;verticalAlign=top;html=1;outlineConnect=0;" parent="1" vertex="1">
          <mxGeometry x="1249" y="350" width="30" height="60" as="geometry" />
        </mxCell>
        <mxCell id="ceJ1qJqe-UXo6vFpMRFe-22" value="&lt;font face=&quot;Times New Roman&quot; style=&quot;font-size: 14px;&quot;&gt;Подтверждение задачи&lt;/font&gt;" style="ellipse;whiteSpace=wrap;html=1;" parent="1" vertex="1">
          <mxGeometry x="1410" y="280" width="230" height="50" as="geometry" />
        </mxCell>
        <mxCell id="ceJ1qJqe-UXo6vFpMRFe-23" value="&lt;font face=&quot;Times New Roman&quot;&gt;&lt;span style=&quot;font-size: 14px;&quot;&gt;Просмотр жалоб на комментарии&lt;/span&gt;&lt;/font&gt;" style="ellipse;whiteSpace=wrap;html=1;" parent="1" vertex="1">
          <mxGeometry x="1410" y="355" width="230" height="50" as="geometry" />
        </mxCell>
        <mxCell id="ceJ1qJqe-UXo6vFpMRFe-25" value="" style="endArrow=none;html=1;rounded=0;entryX=0;entryY=0.5;entryDx=0;entryDy=0;endFill=0;" parent="1" target="ceJ1qJqe-UXo6vFpMRFe-22" edge="1">
          <mxGeometry width="50" height="50" relative="1" as="geometry">
            <mxPoint x="1330" y="379.5" as="sourcePoint" />
            <mxPoint x="1410" y="379.5" as="targetPoint" />
          </mxGeometry>
        </mxCell>
        <mxCell id="ceJ1qJqe-UXo6vFpMRFe-26" value="" style="endArrow=none;html=1;rounded=0;entryX=0;entryY=0.5;entryDx=0;entryDy=0;endFill=0;" parent="1" target="ceJ1qJqe-UXo6vFpMRFe-23" edge="1">
          <mxGeometry width="50" height="50" relative="1" as="geometry">
            <mxPoint x="1330" y="380" as="sourcePoint" />
            <mxPoint x="1420" y="355" as="targetPoint" />
          </mxGeometry>
        </mxCell>
        <mxCell id="F56ZDK0QEWh_bCKNuXug-1" value="&lt;font face=&quot;Times New Roman&quot;&gt;&lt;span style=&quot;font-size: 14px;&quot;&gt;Авторизация&lt;/span&gt;&lt;/font&gt;" style="ellipse;whiteSpace=wrap;html=1;" parent="1" vertex="1">
          <mxGeometry x="1410" y="180" width="230" height="50" as="geometry" />
        </mxCell>
        <mxCell id="F56ZDK0QEWh_bCKNuXug-2" value="" style="endArrow=none;html=1;rounded=0;entryX=0;entryY=0.5;entryDx=0;entryDy=0;endFill=0;" parent="1" target="F56ZDK0QEWh_bCKNuXug-1" edge="1">
          <mxGeometry width="50" height="50" relative="1" as="geometry">
            <mxPoint x="1330" y="160" as="sourcePoint" />
            <mxPoint x="1420" y="145" as="targetPoint" />
          </mxGeometry>
        </mxCell>
        <mxCell id="acn1A1ULvDet1m9HGMsg-3" value="&lt;font face=&quot;Times New Roman&quot;&gt;&lt;span style=&quot;font-size: 14px;&quot;&gt;Подтверждение кода активации&lt;/span&gt;&lt;/font&gt;" style="ellipse;whiteSpace=wrap;html=1;" parent="1" vertex="1">
          <mxGeometry x="1720" y="110" width="230" height="50" as="geometry" />
        </mxCell>
        <mxCell id="acn1A1ULvDet1m9HGMsg-5" value="&amp;lt;&amp;lt;include&amp;gt;&amp;gt;" style="text;html=1;strokeColor=none;fillColor=none;align=center;verticalAlign=middle;whiteSpace=wrap;rounded=0;" parent="1" vertex="1">
          <mxGeometry x="1637" y="110" width="80" height="30" as="geometry" />
        </mxCell>
        <mxCell id="acn1A1ULvDet1m9HGMsg-9" value="" style="endArrow=block;html=1;rounded=0;endFill=0;" parent="1" edge="1">
          <mxGeometry width="50" height="50" relative="1" as="geometry">
            <mxPoint x="1264" y="440" as="sourcePoint" />
            <mxPoint x="1264" y="660" as="targetPoint" />
          </mxGeometry>
        </mxCell>
        <mxCell id="acn1A1ULvDet1m9HGMsg-11" value="&amp;lt;&amp;lt;extend&amp;gt;&amp;gt;" style="text;html=1;strokeColor=none;fillColor=none;align=center;verticalAlign=middle;whiteSpace=wrap;rounded=0;" parent="1" vertex="1">
          <mxGeometry x="1189" y="535" width="80" height="30" as="geometry" />
        </mxCell>
        <mxCell id="G4qy4P3mySwCrmxL-B7K-6" style="edgeStyle=orthogonalEdgeStyle;rounded=0;orthogonalLoop=1;jettySize=auto;html=1;exitX=0;exitY=0.5;exitDx=0;exitDy=0;entryX=1;entryY=0.5;entryDx=0;entryDy=0;dashed=1;" edge="1" parent="1" source="acn1A1ULvDet1m9HGMsg-15" target="ceJ1qJqe-UXo6vFpMRFe-23">
          <mxGeometry relative="1" as="geometry" />
        </mxCell>
        <mxCell id="acn1A1ULvDet1m9HGMsg-15" value="&lt;font face=&quot;Times New Roman&quot; style=&quot;font-size: 14px;&quot;&gt;Удаление комментариев&lt;/font&gt;" style="ellipse;whiteSpace=wrap;html=1;" parent="1" vertex="1">
          <mxGeometry x="1714" y="355" width="230" height="50" as="geometry" />
        </mxCell>
        <mxCell id="acn1A1ULvDet1m9HGMsg-23" value="&lt;font face=&quot;Times New Roman&quot; style=&quot;font-size: 14px;&quot;&gt;Создание задач&lt;/font&gt;" style="ellipse;whiteSpace=wrap;html=1;" parent="1" vertex="1">
          <mxGeometry x="1410" y="460" width="230" height="50" as="geometry" />
        </mxCell>
        <mxCell id="acn1A1ULvDet1m9HGMsg-24" value="" style="endArrow=none;html=1;rounded=0;entryX=0;entryY=0.5;entryDx=0;entryDy=0;endFill=0;" parent="1" target="acn1A1ULvDet1m9HGMsg-23" edge="1">
          <mxGeometry width="50" height="50" relative="1" as="geometry">
            <mxPoint x="1320" y="700" as="sourcePoint" />
            <mxPoint x="1420" y="315" as="targetPoint" />
          </mxGeometry>
        </mxCell>
        <mxCell id="acn1A1ULvDet1m9HGMsg-29" value="&lt;font face=&quot;Times New Roman&quot; style=&quot;font-size: 14px;&quot;&gt;Поиск задач&lt;/font&gt;" style="ellipse;whiteSpace=wrap;html=1;" parent="1" vertex="1">
          <mxGeometry x="1410" y="530" width="230" height="50" as="geometry" />
        </mxCell>
        <mxCell id="acn1A1ULvDet1m9HGMsg-30" value="&lt;font face=&quot;Times New Roman&quot; style=&quot;font-size: 14px;&quot;&gt;Сортировка по популярности или времени создания&lt;/font&gt;" style="ellipse;whiteSpace=wrap;html=1;" parent="1" vertex="1">
          <mxGeometry x="1720" y="460" width="230" height="50" as="geometry" />
        </mxCell>
        <mxCell id="acn1A1ULvDet1m9HGMsg-35" style="edgeStyle=orthogonalEdgeStyle;rounded=0;orthogonalLoop=1;jettySize=auto;html=1;exitX=0;exitY=0.5;exitDx=0;exitDy=0;entryX=1;entryY=0.5;entryDx=0;entryDy=0;dashed=1;" parent="1" source="acn1A1ULvDet1m9HGMsg-31" target="acn1A1ULvDet1m9HGMsg-29" edge="1">
          <mxGeometry relative="1" as="geometry" />
        </mxCell>
        <mxCell id="acn1A1ULvDet1m9HGMsg-31" value="&lt;font face=&quot;Times New Roman&quot; style=&quot;font-size: 14px;&quot;&gt;Фильтрация по сложности и языку программирования&lt;/font&gt;" style="ellipse;whiteSpace=wrap;html=1;" parent="1" vertex="1">
          <mxGeometry x="1714" y="530" width="230" height="50" as="geometry" />
        </mxCell>
        <mxCell id="acn1A1ULvDet1m9HGMsg-32" value="" style="endArrow=classic;html=1;rounded=0;exitX=0;exitY=0.5;exitDx=0;exitDy=0;entryX=0.975;entryY=0.346;entryDx=0;entryDy=0;entryPerimeter=0;dashed=1;" parent="1" source="acn1A1ULvDet1m9HGMsg-30" target="acn1A1ULvDet1m9HGMsg-29" edge="1">
          <mxGeometry width="50" height="50" relative="1" as="geometry">
            <mxPoint x="1410" y="540" as="sourcePoint" />
            <mxPoint x="1635" y="552" as="targetPoint" />
          </mxGeometry>
        </mxCell>
        <mxCell id="acn1A1ULvDet1m9HGMsg-33" value="&amp;lt;&amp;lt;extend&amp;gt;&amp;gt;" style="text;html=1;strokeColor=none;fillColor=none;align=center;verticalAlign=middle;whiteSpace=wrap;rounded=0;" parent="1" vertex="1">
          <mxGeometry x="1595" y="505" width="80" height="30" as="geometry" />
        </mxCell>
        <mxCell id="acn1A1ULvDet1m9HGMsg-34" value="&amp;lt;&amp;lt;extend&amp;gt;&amp;gt;" style="text;html=1;strokeColor=none;fillColor=none;align=center;verticalAlign=middle;whiteSpace=wrap;rounded=0;dashed=1;" parent="1" vertex="1">
          <mxGeometry x="1640" y="530" width="80" height="30" as="geometry" />
        </mxCell>
        <mxCell id="acn1A1ULvDet1m9HGMsg-36" value="&lt;font face=&quot;Times New Roman&quot; style=&quot;font-size: 14px;&quot;&gt;Комментирование задач&lt;/font&gt;" style="ellipse;whiteSpace=wrap;html=1;" parent="1" vertex="1">
          <mxGeometry x="1410" y="600" width="230" height="50" as="geometry" />
        </mxCell>
        <mxCell id="acn1A1ULvDet1m9HGMsg-37" value="&lt;font face=&quot;Times New Roman&quot; style=&quot;font-size: 14px;&quot;&gt;Создание обсуждений&lt;/font&gt;" style="ellipse;whiteSpace=wrap;html=1;" parent="1" vertex="1">
          <mxGeometry x="1410" y="670" width="230" height="50" as="geometry" />
        </mxCell>
        <mxCell id="acn1A1ULvDet1m9HGMsg-43" value="&lt;font face=&quot;Times New Roman&quot;&gt;&lt;span style=&quot;font-size: 14px;&quot;&gt;Присоединение к обсуждению&lt;/span&gt;&lt;/font&gt;" style="ellipse;whiteSpace=wrap;html=1;" parent="1" vertex="1">
          <mxGeometry x="1714" y="740" width="230" height="50" as="geometry" />
        </mxCell>
        <mxCell id="acn1A1ULvDet1m9HGMsg-44" style="edgeStyle=orthogonalEdgeStyle;rounded=0;orthogonalLoop=1;jettySize=auto;html=1;exitX=1;exitY=0.5;exitDx=0;exitDy=0;entryX=0;entryY=0.5;entryDx=0;entryDy=0;dashed=1;" parent="1" edge="1" source="G4qy4P3mySwCrmxL-B7K-9">
          <mxGeometry relative="1" as="geometry">
            <mxPoint x="1640" y="765" as="sourcePoint" />
            <mxPoint x="1714" y="765" as="targetPoint" />
          </mxGeometry>
        </mxCell>
        <mxCell id="acn1A1ULvDet1m9HGMsg-46" value="&amp;lt;&amp;lt;include&amp;gt;&amp;gt;" style="text;html=1;strokeColor=none;fillColor=none;align=center;verticalAlign=middle;whiteSpace=wrap;rounded=0;" parent="1" vertex="1">
          <mxGeometry x="1640" y="740" width="74" height="30" as="geometry" />
        </mxCell>
        <mxCell id="acn1A1ULvDet1m9HGMsg-47" value="&lt;font face=&quot;Times New Roman&quot; style=&quot;font-size: 14px;&quot;&gt;Просмотр таблицы лидеров&lt;/font&gt;" style="ellipse;whiteSpace=wrap;html=1;" parent="1" vertex="1">
          <mxGeometry x="1410" y="810" width="230" height="50" as="geometry" />
        </mxCell>
        <mxCell id="acn1A1ULvDet1m9HGMsg-48" value="&lt;font face=&quot;Times New Roman&quot;&gt;&lt;span style=&quot;font-size: 14px;&quot;&gt;Просмотр личного профиля&lt;/span&gt;&lt;/font&gt;" style="ellipse;whiteSpace=wrap;html=1;" parent="1" vertex="1">
          <mxGeometry x="1410" y="880" width="230" height="50" as="geometry" />
        </mxCell>
        <mxCell id="G4qy4P3mySwCrmxL-B7K-13" style="edgeStyle=orthogonalEdgeStyle;rounded=0;orthogonalLoop=1;jettySize=auto;html=1;exitX=1;exitY=0.5;exitDx=0;exitDy=0;entryX=0;entryY=0.5;entryDx=0;entryDy=0;dashed=1;" edge="1" parent="1" source="acn1A1ULvDet1m9HGMsg-51" target="G4qy4P3mySwCrmxL-B7K-12">
          <mxGeometry relative="1" as="geometry" />
        </mxCell>
        <mxCell id="acn1A1ULvDet1m9HGMsg-51" value="&lt;font face=&quot;Times New Roman&quot;&gt;&lt;span style=&quot;font-size: 14px;&quot;&gt;Просмотр решений других пользователей&lt;/span&gt;&lt;/font&gt;" style="ellipse;whiteSpace=wrap;html=1;" parent="1" vertex="1">
          <mxGeometry x="1410" y="950" width="230" height="50" as="geometry" />
        </mxCell>
        <mxCell id="acn1A1ULvDet1m9HGMsg-53" value="" style="endArrow=none;html=1;rounded=0;entryX=0;entryY=0.5;entryDx=0;entryDy=0;endFill=0;" parent="1" target="acn1A1ULvDet1m9HGMsg-29" edge="1">
          <mxGeometry width="50" height="50" relative="1" as="geometry">
            <mxPoint x="1320" y="700" as="sourcePoint" />
            <mxPoint x="1420" y="495" as="targetPoint" />
          </mxGeometry>
        </mxCell>
        <mxCell id="acn1A1ULvDet1m9HGMsg-54" value="" style="endArrow=none;html=1;rounded=0;entryX=0;entryY=0.5;entryDx=0;entryDy=0;endFill=0;" parent="1" target="acn1A1ULvDet1m9HGMsg-36" edge="1">
          <mxGeometry width="50" height="50" relative="1" as="geometry">
            <mxPoint x="1320" y="700" as="sourcePoint" />
            <mxPoint x="1420" y="565" as="targetPoint" />
          </mxGeometry>
        </mxCell>
        <mxCell id="acn1A1ULvDet1m9HGMsg-55" value="" style="endArrow=none;html=1;rounded=0;entryX=0;entryY=0.5;entryDx=0;entryDy=0;endFill=0;" parent="1" target="acn1A1ULvDet1m9HGMsg-37" edge="1">
          <mxGeometry width="50" height="50" relative="1" as="geometry">
            <mxPoint x="1320" y="700" as="sourcePoint" />
            <mxPoint x="1420" y="635" as="targetPoint" />
          </mxGeometry>
        </mxCell>
        <mxCell id="acn1A1ULvDet1m9HGMsg-56" value="" style="endArrow=none;html=1;rounded=0;endFill=0;entryX=0;entryY=0.5;entryDx=0;entryDy=0;" parent="1" target="G4qy4P3mySwCrmxL-B7K-9" edge="1">
          <mxGeometry width="50" height="50" relative="1" as="geometry">
            <mxPoint x="1320" y="700" as="sourcePoint" />
            <mxPoint x="1310" y="840" as="targetPoint" />
          </mxGeometry>
        </mxCell>
        <mxCell id="acn1A1ULvDet1m9HGMsg-57" value="" style="endArrow=none;html=1;rounded=0;entryX=0;entryY=0.5;entryDx=0;entryDy=0;endFill=0;" parent="1" target="acn1A1ULvDet1m9HGMsg-47" edge="1">
          <mxGeometry width="50" height="50" relative="1" as="geometry">
            <mxPoint x="1320" y="700" as="sourcePoint" />
            <mxPoint x="1420" y="775" as="targetPoint" />
          </mxGeometry>
        </mxCell>
        <mxCell id="acn1A1ULvDet1m9HGMsg-60" value="" style="endArrow=none;html=1;rounded=0;entryX=0;entryY=0.5;entryDx=0;entryDy=0;endFill=0;" parent="1" edge="1">
          <mxGeometry width="50" height="50" relative="1" as="geometry">
            <mxPoint x="1320" y="700" as="sourcePoint" />
            <mxPoint x="1410.0000000000002" y="975" as="targetPoint" />
          </mxGeometry>
        </mxCell>
        <mxCell id="G4qy4P3mySwCrmxL-B7K-11" style="edgeStyle=orthogonalEdgeStyle;rounded=0;orthogonalLoop=1;jettySize=auto;html=1;exitX=0;exitY=0.5;exitDx=0;exitDy=0;entryX=1;entryY=0.5;entryDx=0;entryDy=0;dashed=1;" edge="1" parent="1" source="v3Au81_BQSiFg8u2YEHn-1" target="acn1A1ULvDet1m9HGMsg-47">
          <mxGeometry relative="1" as="geometry" />
        </mxCell>
        <mxCell id="v3Au81_BQSiFg8u2YEHn-1" value="&lt;font face=&quot;Times New Roman&quot;&gt;&lt;span style=&quot;font-size: 14px;&quot;&gt;Поиск пользователей&lt;/span&gt;&lt;/font&gt;" style="ellipse;whiteSpace=wrap;html=1;" parent="1" vertex="1">
          <mxGeometry x="1714" y="810" width="230" height="50" as="geometry" />
        </mxCell>
        <mxCell id="v3Au81_BQSiFg8u2YEHn-8" style="edgeStyle=orthogonalEdgeStyle;rounded=0;orthogonalLoop=1;jettySize=auto;html=1;exitX=0;exitY=0.5;exitDx=0;exitDy=0;entryX=1;entryY=0.5;entryDx=0;entryDy=0;dashed=1;" parent="1" source="v3Au81_BQSiFg8u2YEHn-6" target="acn1A1ULvDet1m9HGMsg-48" edge="1">
          <mxGeometry relative="1" as="geometry" />
        </mxCell>
        <mxCell id="v3Au81_BQSiFg8u2YEHn-6" value="&lt;font face=&quot;Times New Roman&quot; style=&quot;font-size: 14px;&quot;&gt;Заполнение информации профиля&lt;/font&gt;" style="ellipse;whiteSpace=wrap;html=1;" parent="1" vertex="1">
          <mxGeometry x="1714" y="880" width="230" height="50" as="geometry" />
        </mxCell>
        <mxCell id="v3Au81_BQSiFg8u2YEHn-9" value="&amp;lt;&amp;lt;extend&amp;gt;&amp;gt;" style="text;html=1;strokeColor=none;fillColor=none;align=center;verticalAlign=middle;whiteSpace=wrap;rounded=0;" parent="1" vertex="1">
          <mxGeometry x="1640" y="880" width="80" height="30" as="geometry" />
        </mxCell>
        <mxCell id="G4qy4P3mySwCrmxL-B7K-2" value="&lt;font face=&quot;Times New Roman&quot;&gt;&lt;span style=&quot;font-size: 14px;&quot;&gt;Удаление жалоб&lt;/span&gt;&lt;/font&gt;" style="ellipse;whiteSpace=wrap;html=1;" vertex="1" parent="1">
          <mxGeometry x="1720" y="280" width="230" height="50" as="geometry" />
        </mxCell>
        <mxCell id="G4qy4P3mySwCrmxL-B7K-3" value="" style="endArrow=none;html=1;rounded=0;entryX=0;entryY=0.5;entryDx=0;entryDy=0;endFill=0;" edge="1" parent="1" target="acn1A1ULvDet1m9HGMsg-48">
          <mxGeometry width="50" height="50" relative="1" as="geometry">
            <mxPoint x="1320" y="700" as="sourcePoint" />
            <mxPoint x="1420" y="985" as="targetPoint" />
          </mxGeometry>
        </mxCell>
        <mxCell id="G4qy4P3mySwCrmxL-B7K-5" value="" style="endArrow=classic;html=1;rounded=0;exitX=0;exitY=0.5;exitDx=0;exitDy=0;entryX=0.978;entryY=0.347;entryDx=0;entryDy=0;entryPerimeter=0;dashed=1;" edge="1" parent="1" source="G4qy4P3mySwCrmxL-B7K-2" target="ceJ1qJqe-UXo6vFpMRFe-23">
          <mxGeometry width="50" height="50" relative="1" as="geometry">
            <mxPoint x="1726" y="320" as="sourcePoint" />
            <mxPoint x="1640" y="380" as="targetPoint" />
          </mxGeometry>
        </mxCell>
        <mxCell id="G4qy4P3mySwCrmxL-B7K-7" value="&amp;lt;&amp;lt;extend&amp;gt;&amp;gt;" style="text;html=1;strokeColor=none;fillColor=none;align=center;verticalAlign=middle;whiteSpace=wrap;rounded=0;" vertex="1" parent="1">
          <mxGeometry x="1590" y="330" width="80" height="30" as="geometry" />
        </mxCell>
        <mxCell id="G4qy4P3mySwCrmxL-B7K-8" value="&amp;lt;&amp;lt;extend&amp;gt;&amp;gt;" style="text;html=1;strokeColor=none;fillColor=none;align=center;verticalAlign=middle;whiteSpace=wrap;rounded=0;" vertex="1" parent="1">
          <mxGeometry x="1637" y="355" width="80" height="30" as="geometry" />
        </mxCell>
        <mxCell id="G4qy4P3mySwCrmxL-B7K-9" value="&lt;font face=&quot;Times New Roman&quot;&gt;&lt;span style=&quot;font-size: 14px;&quot;&gt;Отправка сообщений&lt;/span&gt;&lt;/font&gt;" style="ellipse;whiteSpace=wrap;html=1;" vertex="1" parent="1">
          <mxGeometry x="1407" y="740" width="230" height="50" as="geometry" />
        </mxCell>
        <mxCell id="G4qy4P3mySwCrmxL-B7K-10" value="&amp;lt;&amp;lt;extend&amp;gt;&amp;gt;" style="text;html=1;strokeColor=none;fillColor=none;align=center;verticalAlign=middle;whiteSpace=wrap;rounded=0;" vertex="1" parent="1">
          <mxGeometry x="1640" y="810" width="80" height="30" as="geometry" />
        </mxCell>
        <mxCell id="G4qy4P3mySwCrmxL-B7K-12" value="&lt;font face=&quot;Times New Roman&quot;&gt;&lt;span style=&quot;font-size: 14px;&quot;&gt;Решение задач&lt;/span&gt;&lt;/font&gt;" style="ellipse;whiteSpace=wrap;html=1;" vertex="1" parent="1">
          <mxGeometry x="1714" y="950" width="230" height="50" as="geometry" />
        </mxCell>
        <mxCell id="G4qy4P3mySwCrmxL-B7K-14" value="&amp;lt;&amp;lt;include&amp;gt;&amp;gt;" style="text;html=1;strokeColor=none;fillColor=none;align=center;verticalAlign=middle;whiteSpace=wrap;rounded=0;" vertex="1" parent="1">
          <mxGeometry x="1637" y="950" width="74" height="30" as="geometry" />
        </mxCell>
      </root>
    </mxGraphModel>
  </diagram>
</mxfile>
